<?xml version="1.0" encoding="UTF-8"?>
<svg id="Layer_1" data-name="Layer 1" xmlns="http://www.w3.org/2000/svg" viewBox="0 0 128.31 120.48">
  <path d="M128.26,70.67c-2.78,.77-5.66,.98-8.48,1.51-3.3,.61-6.61,1.16-9.99,.94-.16-.01-.4-.06-.47,.02-1.56,1.81-3.83,1.3-5.77,1.63-14.17,2.39-28.36,4.65-42.54,6.95-2.21,.36-4.42,.69-6.62,1.05-2.54,.41-5.07,.84-7.71,1.27,.74,.53,1.56,.43,2.29,.54,10.07,1.49,20.14,2.94,30.21,4.41,7.66,1.12,15.31,2.24,22.97,3.36,1.93,.28,3.86,.61,5.79,.86,.78,.1,1.2,.37,1.07,1.2-.13,.82,.25,1.02,1.02,1,2.2-.04,4.4,0,6.6-.02,.42,0,.87,.09,1.13-.44,.17-.34,.57-.24,.87-.2,2.96,.39,5.9,.98,8.88,1.23,.38,.03,.63,.29,.77,.64,0,7.83-.02,15.67-.03,23.5-.07,.09-.15,.18-.22,.28-3.37,.01-6.75,.02-10.12,.03-.05-.06-.14-.13-.14-.19,.15-1.75-1-1.63-2.19-1.59-1.51,.05-3.01,.05-4.52,0-1.14-.03-2.31-.2-2.24,1.52-.16,0-.32-.01-.48-.02,0-.32,0-.63,0-.95-.32-.8-1.03-.47-1.56-.47-21.81-.02-43.62-.02-65.43-.01-7.35,0-14.7,.01-22.05,.02-2.64-.02-5.27-.04-7.91-.08-.61-.01-.77,.25-.71,.79,.09,.82-.36,1.01-1.09,1-2.84-.03-5.68-.04-8.52,0-.8,.01-1.07-.28-1.04-1.05,.03-.92,0-1.84,0-2.76C.03,94.55,.04,72.43,0,50.32c0-1.27,.39-1.74,1.61-1.88,2.66-.31,5.3-.73,7.94-1.13,.74-.11,1.2,.03,1.13,.88-.06,.65,.33,.68,.82,.68,2.32-.01,4.64-.03,6.96,0,.73,.01,.84-.31,.85-.94,.03-1.96,.05-2,2.01-2.29,8.06-1.16,16.13-2.29,24.19-3.45,6.32-.91,12.64-1.85,18.96-2.76,5.37-.78,10.73-1.54,16.1-2.28,.68-.09,1.25-.4,2.04-.65-1.1-.47-2.13-.5-3.12-.67-12.68-2.12-25.36-4.22-38.04-6.32-11.51-1.91-23.03-3.82-34.54-5.72-2.21-.36-4.41-.71-6.62-1.06-.19-.32-.21-.68-.21-1.04,0-6.82,0-13.64-.02-20.45C.05,.31,.39,0,1.32,.02c3.03,.05,6.06,0,9.09,0,.08,.09,.15,.17,.23,.25,.01,.44,.07,.88,.02,1.31-.1,.92,.21,1.26,1.18,1.21,1.63-.08,3.27-.02,4.91-.03q2.52,0,2.6-2.54c.11-.08,.21-.16,.32-.24,.4,.01,.8,.04,1.2,.04,28.78,0,57.56,0,86.34,0,1.78,0,1.82,0,1.79,1.74-.01,.77,.18,1.04,1,1.02,2.04-.06,4.08-.09,6.11,.01,1.25,.06,1.76-.31,1.56-1.58-.13-.82,.16-1.24,1.1-1.22,2.76,.05,5.52,.02,8.27,.03,.52,0,1.06,.01,1.25,.66-.01,.72-.04,1.44-.04,2.15,0,22.61,0,45.21-.01,67.82ZM19.26,103.92c0-.28-.21-.3-.41-.3-2.52,0-5.03,0-7.55-.02-.56,0-.65,.28-.64,.74,.01,1.76,.03,3.51,0,5.27-.01,.61,.16,.85,.8,.84,2.36-.03,4.71-.02,7.07,0,.51,0,.82-.09,.8-.72-.05-1.79-.06-3.59-.08-5.38,0-.14,0-.28,0-.42ZM117.59,32.77c0-.13,0-.26,0-.39,.03-1.75,.03-3.51,.09-5.26,.02-.64-.25-.82-.85-.81-2.31,.02-4.63,.03-6.94,0-.66,0-.9,.17-.88,.87,.05,1.67,.05,3.35,0,5.02-.02,.71,.14,.97,.91,.95,2.27-.06,4.55,0,6.82-.03,.29,0,.75,.21,.85-.34ZM19.08,64.32c.08-.07,.22-.15,.23-.22,.02-1.95,.01-3.9,.03-5.85,0-.64-.37-.68-.86-.68-2.31,0-4.62,.02-6.93-.01-.67-.01-.91,.19-.89,.88,.04,1.47,.02,2.95,.02,4.42q0,1.67,1.7,1.51c2.24,.1,4.47,.17,6.7-.04Zm-7.74,24.3c-.61-.19-.67,.19-.66,.64,0,1.8,.01,3.6,0,5.4,0,.53,.13,.8,.74,.79,2.4-.03,4.8-.02,7.19,0,.48,0,.74-.16,.74-.69-.01-1.88,0-3.76,0-5.64,0-.4-.15-.62-.58-.5-2.47-.09-4.94-.1-7.41,0ZM109.32,48.69c2.51,.02,5.02,.02,7.52,.06,.64,.01,.83-.24,.82-.85-.02-1.71-.03-3.43,0-5.14,.01-.62-.18-.83-.81-.82-2.51,.04-5.02,.04-7.53,.05-.28,.01-.29,.22-.29,.42,0,1.95,0,3.9,0,5.84,0,.21,.03,.4,.29,.44Zm-.03,9.13c-.25,.05-.26,.25-.26,.45,0,1.93,0,3.86,0,5.79,0,.2,.03,.39,.28,.44,2.51,.02,5.03,.01,7.54,.06,.64,.01,.83-.22,.82-.83-.03-1.72-.03-3.43,0-5.15,.01-.64-.23-.82-.84-.81-2.51,.04-5.03,.04-7.54,.06Zm4.12-46.8h0c-1.19,0-2.39,.03-3.58,0-.53-.01-.81,.1-.8,.71,.02,1.83,.02,3.66,0,5.5,0,.53,.23,.68,.72,.67,2.39-.02,4.78-.02,7.17,0,.56,0,.77-.21,.76-.77-.02-1.75-.03-3.51,0-5.26,.01-.71-.29-.88-.94-.85-1.11,.04-2.23,.01-3.35,.01Zm-.1,92.59c-1.16,0-2.31,.03-3.47-.01-.63-.02-.84,.17-.83,.8,.03,1.75,.03,3.51,0,5.26,0,.53,.1,.8,.71,.79,2.39-.03,4.78-.03,7.17,0,.65,0,.8-.26,.79-.86-.03-1.71-.05-3.43,0-5.14,.02-.73-.28-.87-.91-.85-1.15,.04-2.31,.01-3.47,.01ZM14.97,79.67h0c1.2,0,2.4-.02,3.6,0,.55,.01,.79-.15,.78-.75-.03-1.76-.04-3.52,0-5.27,.01-.66-.27-.81-.85-.8-2.36,.02-4.71,.02-7.07,0-.57,0-.76,.19-.75,.75,.03,1.76,.03,3.52,0,5.27-.01,.64,.23,.82,.83,.8,1.16-.04,2.32-.01,3.48-.01Z" style="fill: #f9c802;"/>
  <path d="M108.36,120.18c.16,0,.32,.01,.48,.02-.28,.43-.73,.25-1.09,.25-29.08,0-58.16,0-87.24,.04-1.51,0-1.17-.89-1.2-1.72,7.35,0,14.7-.02,22.05-.02,21.81,0,43.62,0,65.43,.01,.54,0,1.24-.33,1.56,.47-29.01,0-58.02,0-87.04,0-.42,0-1.14-.25-1.14,.47,0,.72,.72,.39,1.14,.48,.08,.02,.16,0,.24,0,28.93,0,57.86,0,86.8,0Z" style="fill: #f9c802;"/>
  <path d="M108.36,120.18c-28.93,0-57.86,0-86.8,0-.08,0-.16,.01-.24,0-.42-.08-1.14,.24-1.14-.48,0-.71,.72-.47,1.14-.47,29.01-.01,58.02,0,87.04,0,0,.32,0,.63,0,.95Z" style="fill: #f9c802;"/>
</svg>