<?xml version="1.0" encoding="UTF-8"?>
<svg id="Layer_1" data-name="Layer 1" xmlns="http://www.w3.org/2000/svg" viewBox="0 0 128.71 160.56">
  <path d="M19.76,.24q-.09,2.53-2.6,2.54c-1.64,0-3.28-.06-4.91,.03-.97,.05-1.28-.29-1.18-1.21,.05-.43-.01-.88-.02-1.31,.51,.24,.3,.7,.28,1.05-.04,.89,.23,1.3,1.22,1.27,1.96-.07,3.92-.05,5.88,0,.86,.02,1.14-.32,1.1-1.12-.02-.42-.16-.89,.23-1.24Z" style="fill: #d3b958;"/>
  <g>
    <path d="M128.67,70.67c-2.78,.77-5.66,.98-8.48,1.51-3.3,.61-6.61,1.16-9.99,.94-.16-.01-.4-.06-.47,.02-1.56,1.81-3.83,1.3-5.77,1.63-14.17,2.39-28.36,4.65-42.54,6.95-2.21,.36-4.42,.69-6.62,1.05-2.54,.41-5.07,.84-7.71,1.27,.74,.53,1.56,.43,2.29,.54,10.07,1.49,20.14,2.94,30.21,4.41,7.66,1.12,15.31,2.24,22.97,3.36,1.93,.28,3.86,.61,5.79,.86,.78,.1,1.2,.37,1.07,1.2-.13,.82,.25,1.02,1.02,1,2.2-.04,4.4,0,6.6-.02,.42,0,.87,.09,1.13-.44,.17-.34,.57-.24,.87-.2,2.96,.39,5.9,.98,8.88,1.23,.38,.03,.63,.29,.77,.64,0,7.83-.02,15.67-.03,23.5-.07,.09-.15,.18-.22,.28-3.37,.01-6.75,.02-10.12,.03-.05-.06-.14-.13-.14-.19,.15-1.75-1-1.63-2.19-1.59-1.51,.05-3.01,.05-4.52,0-1.14-.03-2.31-.2-2.24,1.52-.16,0-.32-.01-.48-.02,0-.32,0-.63,0-.95-.32-.8-1.03-.47-1.56-.47-21.81-.02-43.62-.02-65.43-.01-7.35,0-14.7,.01-22.05,.02-2.64-.02-5.27-.04-7.91-.08-.61-.01-.77,.25-.71,.79,.09,.82-.36,1.01-1.09,1-2.84-.03-5.68-.04-8.52,0-.8,.01-1.07-.28-1.04-1.05,.03-.92,0-1.84,0-2.76,0-22.11,0-44.23-.03-66.34,0-1.27,.39-1.74,1.61-1.88,2.66-.31,5.3-.73,7.94-1.13,.74-.11,1.2,.03,1.13,.88-.06,.65,.33,.68,.82,.68,2.32-.01,4.64-.03,6.96,0,.73,.01,.84-.31,.85-.94,.03-1.96,.05-2,2.01-2.29,8.06-1.16,16.13-2.29,24.19-3.45,6.32-.91,12.64-1.85,18.96-2.76,5.37-.78,10.73-1.54,16.1-2.28,.68-.09,1.25-.4,2.04-.65-1.1-.47-2.13-.5-3.12-.67-12.68-2.12-25.36-4.22-38.04-6.32-11.51-1.91-23.03-3.82-34.54-5.72-2.21-.36-4.41-.71-6.62-1.06-.19-.32-.21-.68-.21-1.04,0-6.82,0-13.64-.02-20.45C.45,.31,.79,0,1.73,.02c3.03,.05,6.06,0,9.09,0,.08,.09,.15,.17,.23,.25,.01,.44,.07,.88,.02,1.31-.1,.92,.21,1.26,1.18,1.21,1.63-.08,3.27-.02,4.91-.03q2.52,0,2.6-2.54c.11-.08,.21-.16,.32-.24,.4,.01,.8,.04,1.2,.04,28.78,0,57.56,0,86.34,0,1.78,0,1.82,0,1.79,1.74-.01,.77,.18,1.04,1,1.02,2.04-.06,4.08-.09,6.11,.01,1.25,.06,1.76-.31,1.56-1.58-.13-.82,.16-1.24,1.1-1.22,2.76,.05,5.52,.02,8.27,.03,.52,0,1.06,.01,1.25,.66-.01,.72-.04,1.44-.04,2.15,0,22.61,0,45.21-.01,67.82ZM19.67,103.92c0-.28-.21-.3-.41-.3-2.52,0-5.03,0-7.55-.02-.56,0-.65,.28-.64,.74,.01,1.76,.03,3.51,0,5.27-.01,.61,.16,.85,.8,.84,2.36-.03,4.71-.02,7.07,0,.51,0,.82-.09,.8-.72-.05-1.79-.06-3.59-.08-5.38,0-.14,0-.28,0-.42ZM117.99,32.77c0-.13,0-.26,0-.39,.03-1.75,.03-3.51,.09-5.26,.02-.64-.25-.82-.85-.81-2.31,.02-4.63,.03-6.94,0-.66,0-.9,.17-.88,.87,.05,1.67,.05,3.35,0,5.02-.02,.71,.14,.97,.91,.95,2.27-.06,4.55,0,6.82-.03,.29,0,.75,.21,.85-.34ZM19.49,64.32c.08-.07,.22-.15,.23-.22,.02-1.95,.01-3.9,.03-5.85,0-.64-.37-.68-.86-.68-2.31,0-4.62,.02-6.93-.01-.67-.01-.91,.19-.89,.88,.04,1.47,.02,2.95,.02,4.42q0,1.67,1.7,1.51c2.24,.1,4.47,.17,6.7-.04Zm-7.74,24.3c-.61-.19-.67,.19-.66,.64,0,1.8,.01,3.6,0,5.4,0,.53,.13,.8,.74,.79,2.4-.03,4.8-.02,7.19,0,.48,0,.74-.16,.74-.69-.01-1.88,0-3.76,0-5.64,0-.4-.15-.62-.58-.5-2.47-.09-4.94-.1-7.41,0ZM109.72,48.69c2.51,.02,5.02,.02,7.52,.06,.64,.01,.83-.24,.82-.85-.02-1.71-.03-3.43,0-5.14,.01-.62-.18-.83-.81-.82-2.51,.04-5.02,.04-7.53,.05-.28,.01-.29,.22-.29,.42,0,1.95,0,3.9,0,5.84,0,.21,.03,.4,.29,.44Zm-.03,9.13c-.25,.05-.26,.25-.26,.45,0,1.93,0,3.86,0,5.79,0,.2,.03,.39,.28,.44,2.51,.02,5.03,.01,7.54,.06,.64,.01,.83-.22,.82-.83-.03-1.72-.03-3.43,0-5.15,.01-.64-.23-.82-.84-.81-2.51,.04-5.03,.04-7.54,.06Zm4.12-46.8h0c-1.19,0-2.39,.03-3.58,0-.53-.01-.81,.1-.8,.71,.02,1.83,.02,3.66,0,5.5,0,.53,.23,.68,.72,.67,2.39-.02,4.78-.02,7.17,0,.56,0,.77-.21,.76-.77-.02-1.75-.03-3.51,0-5.26,.01-.71-.29-.88-.94-.85-1.11,.04-2.23,.01-3.35,.01Zm-.1,92.59c-1.16,0-2.31,.03-3.47-.01-.63-.02-.84,.17-.83,.8,.03,1.75,.03,3.51,0,5.26,0,.53,.1,.8,.71,.79,2.39-.03,4.78-.03,7.17,0,.65,0,.8-.26,.79-.86-.03-1.71-.05-3.43,0-5.14,.02-.73-.28-.87-.91-.85-1.15,.04-2.31,.01-3.47,.01ZM15.37,79.67h0c1.2,0,2.4-.02,3.6,0,.55,.01,.79-.15,.78-.75-.03-1.76-.04-3.52,0-5.27,.01-.66-.27-.81-.85-.8-2.36,.02-4.71,.02-7.07,0-.57,0-.76,.19-.75,.75,.03,1.76,.03,3.52,0,5.27-.01,.64,.23,.82,.83,.8,1.16-.04,2.32-.01,3.48-.01Z" style="fill: #f9c802;"/>
    <path d="M74.03,143.19c.26-1.41,.4-2.85,.79-4.23,1.06-3.78,3.43-6.44,7.13-7.83,3.15-1.18,6.35-1.79,9.73-.96,6.07,1.49,9.04,4.96,9.59,11.39,.17,1.96-.05,3.91-.25,5.86-.12,1.15-.77,1.54-1.84,1.51-.83-.03-1.65,.02-2.46-.2-3.76-.02-7.53-.05-11.29-.05-1.05,0-.49,.45-.17,.79,1.84,2.64,4.5,2.71,7.29,2.26,1.5-.24,2.93-.78,4.3-1.43,.59-.28,.97-.2,1.25,.4,1.02,2.1,1.75,4.27,1.69,6.65-.02,.85-.35,1.24-1.14,1.53-3.42,1.24-6.92,1.8-10.56,1.66-3.61-.14-6.86-1.09-9.52-3.62-2.62-2.5-3.99-5.62-4.39-9.2-.01-.12-.07-.22-.11-.34,0-1.4-.02-2.79-.02-4.19Zm10.71-3.01c-.15,.33-.89,.84,.17,.87,2.08,.05,4.16,0,6.23,.01,.71,0,.75-.29,.37-.79-.91-1.89-2.12-2.59-3.98-2.32-1.37,.2-2.14,1.14-2.79,2.23Z" style="fill: #f9c802;"/>
    <path d="M70.62,159.04c-.11,.39-.22,.72-.75,.78-2.99,.35-5.98,.32-8.97-.01-.91-.1-.62-.79-.63-1.28,0-4.84,.01-9.68,.01-14.51,0-.96,.02-1.92-.26-2.86-.59-1.97-3.18-3.05-5.01-2.11-.59,.3-.4,.82-.4,1.26-.02,6-.06,12,.03,17.99,.02,1.25-.45,1.63-1.53,1.68-2.48,.11-4.95,.12-7.43-.11-.79-.07-1.11-.35-1.1-1.18,.02-8.72,.01-17.43,.02-26.15,0-.52-.02-1.02,.7-1.18,5.01-1.12,10.07-1.91,15.21-1.21,5.54,.76,8.37,3.55,9.62,9.16,.19,.85,.3,1.72,.44,2.59,0,1.23,0,2.46,0,3.69,.02,4.49,.03,8.98,.05,13.46Zm-25.31-26.61h-.24v26.38h.24v-26.38Z" style="fill: #f9c802;"/>
    <path d="M128.65,158.48c-1.08,.96-2.48,.75-3.74,.94-4.03,.63-8.09,.93-12.18,.6-6.23-.5-10.36-5.67-9.25-11.78,.57-3.12,2.74-5.06,5.42-6.45,2.79-1.45,5.84-1.5,8.89-1.42,.34,0,.82,.24,1-.09,.24-.43-.28-.69-.53-.96-.44-.46-.93-.89-1.62-.94-1.3-.43-2.59-.26-3.89,0-1.53,.05-3,.43-4.46,.81-.74,.2-1.12-.03-1.5-.57-.71-1.01-1-2.16-1.16-3.36-.08-.63-.05-1.32-.29-1.89-.52-1.25,0-1.73,1.13-2.14,4.62-1.65,9.3-2.21,14.12-1.01,4.2,1.04,7.2,3.33,8.01,7.84,.02,1.07,.05,2.14,.05,3.22,0,5.73,0,11.46-.01,17.2Zm-9.81-6.14c.1-.05,.28-.11,.28-.16,.03-1.46,.05-2.93,.04-4.39,0-.51-.44-.48-.8-.48-1.03,0-2.06-.05-3.07,.22-1.5,.08-2.42,.77-2.61,1.94-.17,1.09,.6,2.18,1.95,2.62,1.37,.45,2.77,.67,4.21,.25Z" style="fill: #f9c802;"/>
    <path d="M25.4,130.52c.6,1.18,.57,2.36-.1,3.49-3.14,5.33-6.29,10.65-9.44,15.97-.24,.4-.46,.81-.8,1.42,3.35,0,6.52,0,9.69,0,.35,.35,.32,.8,.32,1.23,0,1.92-.06,3.84,.02,5.76,.04,1.09-.28,1.42-1.4,1.41-7.48-.05-14.95-.02-22.43-.01-1.41-1.65-1.41-1.73-.39-3.46,3.2-5.37,6.4-10.75,9.6-16.12,.67-1.13,.67-1.15-.72-1.15-2.63,0-5.27,0-7.9,0-.54,0-1.06-.01-1.26-.64-.89-2.7-.81-5.34,.53-7.9,8.1,0,16.19,0,24.29,0Z" style="fill: #f9c802;"/>
    <path d="M36.97,159.99c-2.08-.03-4.13,.37-6.22,.22-1.07-.07-1.52-.39-1.53-1.55-.06-9-.15-17.99-.29-26.99-.02-1.09,.6-1.24,1.39-1.37,2.94-.49,5.89-.51,8.83-.04,.04,.4,.11,.79,.11,1.19,0,8.62,0,17.23,0,25.85q0,2.25-2.18,2.64s-.07,.03-.11,.05Z" style="fill: #f9c802;"/>
    <path d="M108.76,120.18c.16,0,.32,.01,.48,.02-.28,.43-.73,.25-1.09,.25-29.08,0-58.16,0-87.24,.04-1.51,0-1.17-.89-1.2-1.72,7.35,0,14.7-.02,22.05-.02,21.81,0,43.62,0,65.43,.01,.54,0,1.24-.33,1.56,.47-29.01,0-58.02,0-87.04,0-.42,0-1.14-.25-1.14,.47,0,.72,.72,.39,1.14,.48,.08,.02,.16,0,.24,0,28.93,0,57.86,0,86.8,0Z" style="fill: #f9c802;"/>
    <path d="M24.3,160.07c-7.67,0-15.35,0-23.02,0,0-.09-.02-.19-.03-.28,7.48,0,14.95-.03,22.43,.01,1.12,0,1.45-.32,1.4-1.41-.08-1.92-.02-3.84-.02-5.76,0-.44,.04-.89-.32-1.23,.6,.04,.51,.5,.52,.88,.01,2.26,0,4.52,.03,6.78,.01,.73-.33,1-.99,1.01Z" style="fill: #f9c802;"/>
    <path d="M108.76,120.18c-28.93,0-57.86,0-86.8,0-.08,0-.16,.01-.24,0-.42-.08-1.14,.24-1.14-.48,0-.71,.72-.47,1.14-.47,29.01-.01,58.02,0,87.04,0,0,.32,0,.63,0,.95Z" style="fill: #f9c802;"/>
    <path d="M45.3,132.43v26.38h-.24v-26.38h.24Z" style="fill: #f9c802;"/>
  </g>
</svg>